<svg xmlns="http://www.w3.org/2000/svg" xmlns:xlink="http://www.w3.org/1999/xlink" width="52" height="52" viewBox="0 0 52 52"><defs><style>.a{fill:#fff;stroke:#707070;}.b{clip-path:url(#a);}.c{fill:#8698ad;}.d{fill:#677e98;}</style><clipPath id="a"><rect class="a" width="52" height="52" transform="translate(8108 1037)"/></clipPath></defs><g class="b" transform="translate(-8108 -1037)"><g transform="translate(7987.693 1038.592)"><path class="c" d="M16982.8,13040.226h-26.281a5.9,5.9,0,0,1-3.133-.546,3.719,3.719,0,0,1-1.539-1.535l-.043-.075a6.033,6.033,0,0,1-.5-2.96v-38.486a5.916,5.916,0,0,1,.541-3.133,3.656,3.656,0,0,1,1.539-1.539l.072-.043a6.037,6.037,0,0,1,2.959-.5h19.3l12.2,12.2v31.6a5.658,5.658,0,0,1-.541,2.938,3.686,3.686,0,0,1-1.539,1.535l-.072.038A5.9,5.9,0,0,1,16982.8,13040.226Zm-21.914-18.977-3.275,8.569h1.5l.779-2.147h3.586l.779,2.148h1.5l-3.279-8.569Zm16.021,4.6h0l3.385,3.974h1.893l-4.332-4.9,3.77-3.671h-1.773l-3.986,4.042v-4.042h-1.4v8.569h1.4v-2.954l1.045-1.02Zm-10.309-4.6h0v8.569h1.406v-3.291h2.123c2.076,0,3.129-.893,3.129-2.652,0-1.742-1.045-2.626-3.107-2.626Zm-3.539,5.27h-2.75l1.355-3.756h.047l1.346,3.755Zm6.982-1.189h-2.037v-2.882h2.037a2.188,2.188,0,0,1,1.357.337,1.284,1.284,0,0,1,.443,1.091,1.35,1.35,0,0,1-.432,1.117A2.283,2.283,0,0,1,16970.045,13025.329Z" transform="translate(-16823.307 -12991.408)"/><path class="d" d="M640,0l12.2,12.2H643.39a3.821,3.821,0,0,1-2.038-.354,2.4,2.4,0,0,1-1-1l-.035-.065A3.966,3.966,0,0,1,640,8.813V0Z" transform="translate(-487.592)"/></g></g></svg>