<svg xmlns="http://www.w3.org/2000/svg" xmlns:xlink="http://www.w3.org/1999/xlink" width="52" height="52" viewBox="0 0 52 52"><defs><style>.a,.e{fill:#fff;}.a{stroke:#707070;}.b{clip-path:url(#a);}.c{fill:#0f4faf;}.d{fill:#023889;}</style><clipPath id="a"><rect class="a" width="52" height="52" transform="translate(7097 1229)"/></clipPath></defs><g class="b" transform="translate(-7097 -1229)"><g transform="translate(6976.91 1230.88)"><path class="c" d="M164.18,12.06V43.282a5.573,5.573,0,0,1-.537,2.9,3.644,3.644,0,0,1-1.52,1.52l-.072.038a5.832,5.832,0,0,1-2.927.5H133.154a5.822,5.822,0,0,1-3.1-.537,3.652,3.652,0,0,1-1.522-1.52l-.04-.074a5.893,5.893,0,0,1-.5-2.925V5.154a5.822,5.822,0,0,1,.537-3.1,3.637,3.637,0,0,1,1.52-1.522l.074-.04a5.893,5.893,0,0,1,2.925-.5H152.12Z"/><path class="d" d="M640,0l12.06,12.06H643.35a3.776,3.776,0,0,1-2.014-.35,2.374,2.374,0,0,1-.987-.987l-.034-.064A3.919,3.919,0,0,1,640,8.709Z" transform="translate(-487.88)"/><path class="e" d="M341.667,434.489l2.305-8.786h.113l2.231,8.786h3.116l3.043-13.113h-2.551l-2.1,10.185h-.115l-2.171-8.824h-2.874l-2.229,8.824h-.111l-2.08-10.185h-2.589l2.91,13.113Z" transform="translate(-197.876 -401.525)"/></g></g></svg>