<svg xmlns="http://www.w3.org/2000/svg" xmlns:xlink="http://www.w3.org/1999/xlink" width="52" height="52" viewBox="0 0 52 52"><defs><style>.a{fill:#fff;stroke:#707070;}.b{clip-path:url(#a);}.c{fill:#924a22;}.d{fill:#633216;}</style><clipPath id="a"><rect class="a" width="52" height="52" transform="translate(8108 1037)"/></clipPath></defs><g class="b" transform="translate(-8108 -1037)"><g transform="translate(7987.693 1038.592)"><path class="c" d="M16982.8,13040.226h-26.281a5.9,5.9,0,0,1-3.133-.546,3.719,3.719,0,0,1-1.539-1.535l-.043-.075a6.033,6.033,0,0,1-.5-2.96v-38.486a5.916,5.916,0,0,1,.541-3.133,3.656,3.656,0,0,1,1.539-1.539l.072-.043a6.037,6.037,0,0,1,2.959-.5h19.3l12.2,12.2v31.6a5.658,5.658,0,0,1-.541,2.938,3.686,3.686,0,0,1-1.539,1.535l-.072.038A5.9,5.9,0,0,1,16982.8,13040.226Zm-9.266-13.242h0a2.939,2.939,0,0,0,1.178,2.388,5.255,5.255,0,0,0,5.014-.047,2.155,2.155,0,0,0,.9-1.825,2.042,2.042,0,0,0-1.111-1.846,13.605,13.605,0,0,0-2.248-.84,11.653,11.653,0,0,1-1.463-.529.977.977,0,0,1-.6-.878.918.918,0,0,1,.527-.887,2.683,2.683,0,0,1,1.236-.227,2.341,2.341,0,0,1,1.416.346,1.9,1.9,0,0,1,.66,1.143h1.391a2.729,2.729,0,0,0-1.027-2.076,3.917,3.917,0,0,0-2.367-.627,3.837,3.837,0,0,0-2.279.627,2.035,2.035,0,0,0-.959,1.786,1.9,1.9,0,0,0,.984,1.731,14.274,14.274,0,0,0,1.965.716,16.264,16.264,0,0,1,1.672.567,1.217,1.217,0,0,1,.8,1.078.971.971,0,0,1-.549.853,3.044,3.044,0,0,1-1.488.312,2.689,2.689,0,0,1-1.561-.371,2.021,2.021,0,0,1-.7-1.394Zm-7.379-5.734h0v8.569h1.4v-3.291h2.127c2.076,0,3.129-.893,3.129-2.652,0-1.742-1.045-2.626-3.107-2.626Zm-7.705,0h0v8.569h6.383v-1.2h-4.98v-2.593h4.49v-1.2h-4.49v-2.379h4.775v-1.2Zm11.148,4.08h-2.041v-2.882h2.041a2.22,2.22,0,0,1,1.357.337,1.284,1.284,0,0,1,.443,1.091,1.35,1.35,0,0,1-.432,1.117A2.283,2.283,0,0,1,16969.6,13025.329Z" transform="translate(-16823.307 -12991.408)"/><path class="d" d="M640,0l12.2,12.2H643.39a3.821,3.821,0,0,1-2.038-.354,2.4,2.4,0,0,1-1-1l-.035-.065A3.966,3.966,0,0,1,640,8.813V0Z" transform="translate(-487.592)"/></g></g></svg>