<svg xmlns="http://www.w3.org/2000/svg" xmlns:xlink="http://www.w3.org/1999/xlink" width="52" height="52" viewBox="0 0 52 52"><defs><style>.a,.e{fill:#fff;}.a{stroke:#707070;}.b{clip-path:url(#a);}.c{fill:#6e4df0;}.d{fill:rgba(0,0,0,0.26);}</style><clipPath id="a"><rect class="a" width="52" height="52" transform="translate(609 55)"/></clipPath></defs><g class="b" transform="translate(-609 -55)"><g transform="translate(489 56.805)"><path class="c" d="M164.146,12.049V43.241a5.568,5.568,0,0,1-.536,2.9,3.641,3.641,0,0,1-1.518,1.518l-.072.038a5.827,5.827,0,0,1-2.924.5H133.149a5.817,5.817,0,0,1-3.093-.536,3.649,3.649,0,0,1-1.52-1.518l-.04-.074a5.887,5.887,0,0,1-.5-2.922v-38a5.817,5.817,0,0,1,.536-3.093,3.634,3.634,0,0,1,1.518-1.52l.074-.04A5.887,5.887,0,0,1,133.05,0H152.1Z"/><path class="d" d="M640,0l12.049,12.049h-8.7a3.772,3.772,0,0,1-2.012-.349,2.371,2.371,0,0,1-.986-.986l-.034-.064A3.915,3.915,0,0,1,640,8.7Z" transform="translate(-487.902)"/><path class="e" d="M349.366,355.124a1,1,0,0,1,.06-.335l.02-.046a.851.851,0,0,1,.05-.106l.028-.044a.866.866,0,0,1,.07-.1l.028-.032a.924.924,0,0,1,.277-.217,1.052,1.052,0,0,1,.265-.1l.04-.006a.881.881,0,0,1,.135-.014h.03a.9.9,0,0,1,.139.008l-.139-.008a1.01,1.01,0,0,1,.378.074l-.1-.036.094.032.042.02a1.069,1.069,0,0,1,.1.05,12.381,12.381,0,0,1,2.321,1.918,4.539,4.539,0,0,0,1.446.936,7.514,7.514,0,0,0,3.086,0,3.761,3.761,0,0,1-.723,1.819,4.08,4.08,0,0,1-3,1.637,3.218,3.218,0,0,1-1.918-.57s-.462-.311-.594-.392l-.06-.036-.068-.038,0,9.647c-.137,2.125-2.331,3.815-5.02,3.815-2.771,0-5.02-1.8-5.02-4.016s2.249-4.016,5.02-4.016a5.889,5.889,0,0,1,3.014.8Z" transform="translate(-203.293 -337.463)"/></g></g></svg>