<svg xmlns="http://www.w3.org/2000/svg" xmlns:xlink="http://www.w3.org/1999/xlink" width="52" height="52" viewBox="0 0 52 52"><defs><style>.a{fill:#fff;stroke:#707070;}.b{clip-path:url(#a);}.c{fill:#557baf;}.d{fill:#205193;}</style><clipPath id="a"><rect class="a" width="52" height="52" transform="translate(8108 1037)"/></clipPath></defs><g class="b" transform="translate(-8108 -1037)"><g transform="translate(7987.693 1038.592)"><path class="c" d="M16982.8,13040.226h-26.281a5.9,5.9,0,0,1-3.133-.546,3.719,3.719,0,0,1-1.539-1.535l-.043-.075a6.033,6.033,0,0,1-.5-2.96v-38.486a5.916,5.916,0,0,1,.541-3.133,3.656,3.656,0,0,1,1.539-1.539l.072-.043a6.037,6.037,0,0,1,2.959-.5h19.3l12.2,12.2v31.6a5.658,5.658,0,0,1-.541,2.938,3.686,3.686,0,0,1-1.539,1.535l-.072.038A5.9,5.9,0,0,1,16982.8,13040.226Zm-3.127-12.245v1.838h1.336v-1.838h1.27v-1.116h-1.27v-5.615h-1.287l-4.187,5.4v1.334Zm-11.387-6.731h0v8.569h1.4v-3.291h2.123c2.08,0,3.135-.893,3.135-2.652,0-1.742-1.045-2.626-3.109-2.626Zm-3.129,2.664h.047v5.905h1.4v-8.569h-1.646l-2.9,6.719h-.047l-2.916-6.719h-1.646v8.569h1.408v-5.905h.047l2.52,5.905h1.211l2.523-5.9Zm14.516,2.951h-3l2.963-3.842h.033v3.841Zm-7.941-1.535h-2.043v-2.882h2.043a2.205,2.205,0,0,1,1.355.337,1.292,1.292,0,0,1,.443,1.091,1.344,1.344,0,0,1-.43,1.117A2.291,2.291,0,0,1,16971.734,13025.329Z" transform="translate(-16823.307 -12991.408)"/><path class="d" d="M640,0l12.2,12.2H643.39a3.821,3.821,0,0,1-2.038-.354,2.4,2.4,0,0,1-1-1l-.035-.065A3.966,3.966,0,0,1,640,8.813V0Z" transform="translate(-487.592)"/></g></g></svg>