<svg xmlns="http://www.w3.org/2000/svg" xmlns:xlink="http://www.w3.org/1999/xlink" width="52" height="52" viewBox="0 0 52 52"><defs><style>.a,.e{fill:#fff;}.a{stroke:#707070;}.b{clip-path:url(#a);}.c{fill:#cd1e2c;}.d{fill:#ae0715;}</style><clipPath id="a"><rect class="a" width="52" height="52" transform="translate(360 55)"/></clipPath></defs><g class="b" transform="translate(-360 -55)"><g transform="translate(239.746 56.657)"><path class="c" d="M164.507,12.169v31.5a5.624,5.624,0,0,1-.542,2.929,3.677,3.677,0,0,1-1.533,1.533l-.073.039a5.885,5.885,0,0,1-2.953.5H133.2a5.875,5.875,0,0,1-3.123-.542,3.685,3.685,0,0,1-1.535-1.533l-.041-.075a5.946,5.946,0,0,1-.5-2.951V5.2a5.875,5.875,0,0,1,.542-3.123A3.67,3.67,0,0,1,130.075.542L130.15.5A5.946,5.946,0,0,1,133.1,0h19.237Z"/><path class="d" d="M640,0l12.169,12.169h-8.788a3.809,3.809,0,0,1-2.032-.353,2.4,2.4,0,0,1-1-1l-.035-.065A3.955,3.955,0,0,1,640,8.788Z" transform="translate(-487.662)"/><path class="e" d="M280.245,476.55v-2.779h1.1c2.545,0,3.543-.817,3.543-3.166,0-2.168-.844-3.063-3.543-3.063h-3.077v9.007Zm.844-4.361h-.844V469.1h.844c1.324,0,1.791.389,1.791,1.546C282.88,471.839,282.426,472.19,281.089,472.19Zm8.5,4.361c2.649,0,4.387-1.026,4.387-4.5,0-3.752-1.738-4.507-4.387-4.507H286.5v9.009Zm-.1-1.687h-1.014V469.2h1.014c1.623,0,2.454.519,2.454,2.841C291.942,474.24,291.151,474.863,289.488,474.863Zm8.243,1.687v-3.5H301v-1.7H297.73v-2.089h3.529v-1.716h-5.5v9.009Z" transform="translate(-143.129 -445.316)"/></g></g></svg>