<svg xmlns="http://www.w3.org/2000/svg" xmlns:xlink="http://www.w3.org/1999/xlink" width="52" height="52" viewBox="0 0 52 52"><defs><style>.a,.e{fill:#fff;}.a{stroke:#707070;}.b{clip-path:url(#a);}.c{fill:#2dbc9a;}.d{fill:#0fa07e;}</style><clipPath id="a"><rect class="a" width="52" height="52" transform="translate(8108 1037)"/></clipPath></defs><g class="b" transform="translate(-8108 -1037)"><g transform="translate(7987.693 1038.592)"><path class="c" d="M16987.918,13003.612v31.594a5.634,5.634,0,0,1-.543,2.938,3.685,3.685,0,0,1-1.537,1.537l-.074.039a5.9,5.9,0,0,1-2.961.5h-26.281a5.89,5.89,0,0,1-3.133-.543,3.707,3.707,0,0,1-1.539-1.537l-.041-.076a5.969,5.969,0,0,1-.5-2.959v-38.485a5.894,5.894,0,0,1,.543-3.132,3.681,3.681,0,0,1,1.537-1.54l.076-.041a5.96,5.96,0,0,1,2.959-.5h19.293Z" transform="translate(-16823.307 -12991.408)"/><path class="d" d="M640,0l12.2,12.2H643.39a3.821,3.821,0,0,1-2.038-.354,2.4,2.4,0,0,1-1-1l-.035-.065A3.966,3.966,0,0,1,640,8.813V0Z" transform="translate(-487.592)"/></g><path class="e" d="M.84-8.568V0H2.148V-3.336h2.22c2.052,0,3.084-.876,3.084-2.628s-1.02-2.6-3.06-2.6ZM2.148-7.452H4.284a2.236,2.236,0,0,1,1.4.36,1.31,1.31,0,0,1,.456,1.128A1.422,1.422,0,0,1,5.7-4.812a2.252,2.252,0,0,1-1.416.36H2.148ZM8.664-8.568V0H9.972V-6.444h.048L14.448,0H15.72V-8.568H14.412V-2.2h-.048L9.984-8.568ZM21.12-8.736a3.722,3.722,0,0,0-3.012,1.32,4.7,4.7,0,0,0-1.056,3.168,4.551,4.551,0,0,0,1.056,3.12,4,4,0,0,0,3.18,1.3A6.951,6.951,0,0,0,23.34-.12a4.988,4.988,0,0,0,1.548-.8v-3.6H21.216v1.116H23.58v1.86a3.477,3.477,0,0,1-.96.42,4.735,4.735,0,0,1-1.188.156,2.922,2.922,0,0,1-2.364-.9,3.513,3.513,0,0,1-.708-2.376,3.628,3.628,0,0,1,.78-2.484,2.462,2.462,0,0,1,1.98-.852,2.71,2.71,0,0,1,1.632.444,2.012,2.012,0,0,1,.792,1.3h1.32a3.256,3.256,0,0,0-1.152-2.148A4.061,4.061,0,0,0,21.12-8.736Z" transform="translate(8121 1077)"/></g></svg>