<svg xmlns="http://www.w3.org/2000/svg" xmlns:xlink="http://www.w3.org/1999/xlink" width="52" height="52" viewBox="0 0 52 52"><defs><style>.a,.e{fill:#fff;}.a{stroke:#707070;}.b{clip-path:url(#a);}.c{fill:#b7300b;}.d{fill:#952303;}</style><clipPath id="a"><rect class="a" width="52" height="52" transform="translate(8108 1037)"/></clipPath></defs><g class="b" transform="translate(-8108 -1037)"><g transform="translate(7987.693 1038.592)"><path class="c" d="M164.612,12.2V43.8a5.64,5.64,0,0,1-.543,2.937,3.687,3.687,0,0,1-1.538,1.538l-.073.039a5.9,5.9,0,0,1-2.961.5H133.215a5.892,5.892,0,0,1-3.132-.543,3.7,3.7,0,0,1-1.54-1.538l-.041-.075A5.963,5.963,0,0,1,128,43.7V5.215a5.892,5.892,0,0,1,.543-3.132,3.681,3.681,0,0,1,1.538-1.54L130.156.5a5.964,5.964,0,0,1,2.959-.5h19.292Z"/><path class="d" d="M640,0l12.2,12.2H643.39a3.821,3.821,0,0,1-2.038-.354,2.4,2.4,0,0,1-1-1l-.035-.065A3.966,3.966,0,0,1,640,8.813V0Z" transform="translate(-487.592)"/><path class="e" d="M422.858,434.645v-4.3H424.6c3.614,0,5.105-1.2,5.105-4.55,0-3.136-1.2-4.418-5.105-4.418h-4.245v13.27h2.506Zm1.434-6.328h-1.434V423.4h1.434c2.121,0,2.848.61,2.848,2.429,0,1.93-.708,2.485-2.848,2.485Z" transform="translate(-278.415 -401.288)"/></g></g></svg>