<svg xmlns="http://www.w3.org/2000/svg" xmlns:xlink="http://www.w3.org/1999/xlink" width="52" height="52" viewBox="0 0 52 52"><defs><style>.a,.g{fill:#fff;}.a{stroke:#707070;}.b{clip-path:url(#a);}.c{fill:#f95f5d;}.d{fill:#55c7f7;}.e{fill:#7ecf3b;}.f{fill:#fdaf42;}</style><clipPath id="a"><rect class="a" width="52" height="52" transform="translate(1639 1645)"/></clipPath></defs><g class="b" transform="translate(-1639 -1645)"><g transform="translate(1545.199 1538.588)"><path class="c" d="M97.9,376h44v14.3h-44Z" transform="translate(-0.095 -250.737)"/><path class="d" d="M141.8,125.263V113.871a2.779,2.779,0,0,0-2.767-2.671H100.567a2.779,2.779,0,0,0-2.767,2.671v11.392Zm0,0"/><path class="e" d="M97.9,645.2v11.392a2.767,2.767,0,0,0,2.746,2.671h38.5a2.767,2.767,0,0,0,2.746-2.671V645.2Zm0,0" transform="translate(-0.095 -505.64)"/><path class="f" d="M421.8,111.2h9.82v42.423H421.8Z" transform="translate(-306.793)"/><path class="g" d="M382.666,413.938v5.969H372.378v-5.969h10.287m1.652-2.438H370.727a.67.67,0,0,0-.627.627v9.507a.67.67,0,0,0,.627.627h13.591a.67.67,0,0,0,.627-.627v-9.507C384.79,411.659,384.551,411.5,384.317,411.5Zm0,0" transform="translate(-257.838 -284.351)"/></g></g></svg>