<svg xmlns="http://www.w3.org/2000/svg" xmlns:xlink="http://www.w3.org/1999/xlink" width="24" height="24" viewBox="0 0 24 24"><defs><style>.a,.c{}.a{stroke:#707070;}.b{clip-path:url(#a);}</style><clipPath id="a"><rect class="a" width="24" height="24" transform="translate(20 185)"/></clipPath></defs><g class="b" transform="translate(-20 -185)"><path class="c" d="M251.653,53.312H256a5.991,5.991,0,0,1,.771.032,1.4,1.4,0,0,1,.879.43,1.374,1.374,0,0,1,.338.929,5.822,5.822,0,0,1-.065.754l-.067.526a13.947,13.947,0,0,1-.24,1.482,2.5,2.5,0,0,1-.623,1.2,2.529,2.529,0,0,1-.494.385l2.487,11.67A3.032,3.032,0,0,1,259,72.259a3.077,3.077,0,0,1-.874,1.274l-2.938,2.87a5.723,5.723,0,0,1-.516.466,1.332,1.332,0,0,1-1.7,0,5.539,5.539,0,0,1-.519-.466l-2.935-2.87a3.093,3.093,0,0,1-.874-1.274,3.02,3.02,0,0,1,.017-1.545l.055-.258a1.763,1.763,0,0,1-.443.06,1.63,1.63,0,0,1-1-.416,4.594,4.594,0,0,1-.664-.7,8.409,8.409,0,0,1-1.036-1.715l-.035-.083a2.18,2.18,0,0,1,.178-2.529l.047-.073a25.653,25.653,0,0,1,2.875-3.609l.441-.483c.639-.7,1.254-1.373,1.8-2.039a2.526,2.526,0,0,1-.23-.2,2.475,2.475,0,0,1-.621-1.2,13.941,13.941,0,0,1-.24-1.483l-.067-.526a5.6,5.6,0,0,1-.065-.754,1.367,1.367,0,0,1,.338-.929,1.4,1.4,0,0,1,.879-.43,5.991,5.991,0,0,1,.771-.032Zm-1.074,8.427-.273.3-.43.471a24.064,24.064,0,0,0-2.692,3.365q-.139.213-.256.438a.275.275,0,0,0-.038.112.33.33,0,0,0,.022.12,6.756,6.756,0,0,0,1.012,1.826,2.975,2.975,0,0,0,.415.444l.017.015a1.153,1.153,0,0,0,.206-.11,3.624,3.624,0,0,0,.654-.583Zm3.291-2.322h-.088c-.366,0-.7,0-1-.01L250.294,71.06a1.479,1.479,0,0,0-.053.713c.028.092.107.236.446.569l2.908,2.843c.093.092.166.163.231.223q.117-.11.231-.223l2.908-2.843a1.577,1.577,0,0,0,.446-.569,1.5,1.5,0,0,0-.053-.711l-2.484-11.655C254.573,59.417,254.238,59.417,253.87,59.417Zm-2.522-4.438.038.308.057.438a13.191,13.191,0,0,0,.208,1.339.85.85,0,0,0,.19.426.768.768,0,0,0,.1.09.954.954,0,0,0,.479.137c.321.035.744.037,1.4.037a13.927,13.927,0,0,0,1.4-.037.934.934,0,0,0,.479-.137.871.871,0,0,0,.107-.09.855.855,0,0,0,.188-.426,13.2,13.2,0,0,0,.21-1.339l.057-.438.038-.308q-.173,0-.346,0Z" transform="translate(-220.161 131.688)"/></g></svg>