<svg xmlns="http://www.w3.org/2000/svg" xmlns:xlink="http://www.w3.org/1999/xlink" width="52" height="52" viewBox="0 0 52 52"><defs><style>.a{fill:#fff;stroke:#707070;}.b{clip-path:url(#a);}.c{fill:#ededee;}.d{fill:#cccdcf;}.e{fill:#919191;}</style><clipPath id="a"><rect class="a" width="52" height="52" transform="translate(9014 1155)"/></clipPath></defs><g class="b" transform="translate(-9014 -1155)"><g transform="translate(8893.697 1156.596)"><path class="c" d="M164.606,12.2V43.791a5.639,5.639,0,0,1-.543,2.937,3.687,3.687,0,0,1-1.537,1.537l-.073.039a5.9,5.9,0,0,1-2.961.5H133.214a5.891,5.891,0,0,1-3.132-.543,3.7,3.7,0,0,1-1.539-1.537l-.041-.075a5.963,5.963,0,0,1-.5-2.959V5.214a5.891,5.891,0,0,1,.543-3.132A3.68,3.68,0,0,1,130.08.543L130.156.5a5.963,5.963,0,0,1,2.959-.5H152.4Z"/><path class="d" d="M640,0l12.2,12.2H643.39a3.82,3.82,0,0,1-2.038-.354,2.4,2.4,0,0,1-1-1l-.035-.065A3.964,3.964,0,0,1,640,8.812Z" transform="translate(-487.595)"/><path class="e" d="M301.9,482.356c0-.911-.207-1.041-1.041-1.041-.872,0-1.041.13-1.041,1.041,0,.868.163,1.037.992,1.041h.049C301.693,483.4,301.9,483.243,301.9,482.356Zm4.452,1.041a6.022,6.022,0,0,0,.872-.065v-1.287a2.4,2.4,0,0,1-.639.065c-.728,0-.872-.222-.872-1.133v-3.384h1.55v-1.3h-1.55v-1.668h-1.627v1.668h-.976v1.3h.976v3.514c0,1.849.586,2.29,2.266,2.29Zm3.189-.077,1.627-2.591h.077l1.588,2.591h1.914l-2.408-3.606,2.278-3.423h-1.861l-1.5,2.461h-.079l-1.5-2.461H307.8l2.278,3.437-2.432,3.591Zm8.759.077a6,6,0,0,0,.872-.065v-1.287a2.4,2.4,0,0,1-.639.065c-.712,0-.864-.214-.87-1.078v-3.439h1.548v-1.3h-1.548v-1.668h-1.627v1.668h-.976v1.3h.976v3.514C316.037,482.956,316.623,483.4,318.3,483.4Z" transform="translate(-163.629 -452.001)"/></g></g></svg>