<svg xmlns="http://www.w3.org/2000/svg" xmlns:xlink="http://www.w3.org/1999/xlink" width="52" height="52" viewBox="0 0 52 52"><defs><style>.a{fill:#fff;stroke:#707070;}.b{clip-path:url(#a);}.c{fill:#ededee;}.d{fill:#cccdcf;}.e{fill:#919191;}</style><clipPath id="a"><rect class="a" width="52" height="52" transform="translate(9014 1155)"/></clipPath></defs><g class="b" transform="translate(-9014 -1155)"><g transform="translate(8893.697 1156.596)"><path class="c" d="M164.606,12.2V43.791a5.639,5.639,0,0,1-.543,2.937,3.687,3.687,0,0,1-1.537,1.537l-.073.039a5.9,5.9,0,0,1-2.961.5H133.214a5.891,5.891,0,0,1-3.132-.543,3.7,3.7,0,0,1-1.539-1.537l-.041-.075a5.963,5.963,0,0,1-.5-2.959V5.214a5.891,5.891,0,0,1,.543-3.132A3.68,3.68,0,0,1,130.08.543L130.156.5a5.963,5.963,0,0,1,2.959-.5H152.4Z"/><path class="d" d="M640,0l12.2,12.2H643.39a3.82,3.82,0,0,1-2.038-.354,2.4,2.4,0,0,1-1-1l-.035-.065A3.964,3.964,0,0,1,640,8.812Z" transform="translate(-487.595)"/></g></g><path class="e" d="M4.176-11.648a3.826,3.826,0,0,0-2.8,1.008A3.657,3.657,0,0,0,.336-7.856H2.16a2.613,2.613,0,0,1,.4-1.568,1.67,1.67,0,0,1,1.5-.656,1.735,1.735,0,0,1,1.28.448,1.749,1.749,0,0,1,.448,1.248A1.772,1.772,0,0,1,5.36-7.248l-.192.224A8.7,8.7,0,0,0,3.3-4.992a3.388,3.388,0,0,0-.32,1.568V-3.2h1.84v-.224a2.261,2.261,0,0,1,.24-1.04,2.48,2.48,0,0,1,.64-.8c.768-.672,1.232-1.1,1.376-1.264A3.2,3.2,0,0,0,7.664-8.5a2.9,2.9,0,0,0-.96-2.3A3.636,3.636,0,0,0,4.176-11.648ZM3.888-2.416a1.233,1.233,0,0,0-.88.336,1.123,1.123,0,0,0-.352.864,1.123,1.123,0,0,0,.352.864A1.246,1.246,0,0,0,3.888,0a1.233,1.233,0,0,0,.88-.336,1.17,1.17,0,0,0,.368-.88,1.182,1.182,0,0,0-.352-.864A1.272,1.272,0,0,0,3.888-2.416Z" transform="translate(22 34)"/></svg>