<svg xmlns="http://www.w3.org/2000/svg" xmlns:xlink="http://www.w3.org/1999/xlink" width="52" height="52" viewBox="0 0 52 52"><defs><style>.a{fill:#fff;stroke:#707070;}.b{clip-path:url(#a);}.c{fill:#5069ae;}.d{fill:#3c4e9b;}</style><clipPath id="a"><rect class="a" width="52" height="52" transform="translate(8108 1037)"/></clipPath></defs><g class="b" transform="translate(-8108 -1037)"><g transform="translate(7987.693 1038.592)"><path class="c" d="M16982.8,13040.226h-26.281a5.9,5.9,0,0,1-3.133-.546,3.719,3.719,0,0,1-1.539-1.535l-.043-.075a6.033,6.033,0,0,1-.5-2.96v-38.486a5.916,5.916,0,0,1,.541-3.133,3.656,3.656,0,0,1,1.539-1.539l.072-.043a6.037,6.037,0,0,1,2.959-.5h19.3l12.2,12.2v31.6a5.658,5.658,0,0,1-.541,2.938,3.686,3.686,0,0,1-1.539,1.535l-.072.038A5.9,5.9,0,0,1,16982.8,13040.226Zm-11.09-13.242h0a2.937,2.937,0,0,0,1.172,2.388,5.263,5.263,0,0,0,5.018-.047,2.152,2.152,0,0,0,.9-1.825,2.038,2.038,0,0,0-1.117-1.846,13.166,13.166,0,0,0-2.242-.84,11.961,11.961,0,0,1-1.467-.529.976.976,0,0,1-.6-.878.916.916,0,0,1,.529-.887,2.637,2.637,0,0,1,1.232-.227,2.326,2.326,0,0,1,1.42.346,1.9,1.9,0,0,1,.658,1.143h1.393a2.751,2.751,0,0,0-1.031-2.076,4.613,4.613,0,0,0-4.645,0,2.038,2.038,0,0,0-.963,1.786,1.906,1.906,0,0,0,.984,1.731,14.146,14.146,0,0,0,1.971.716,15.848,15.848,0,0,1,1.666.567,1.216,1.216,0,0,1,.807,1.078.968.968,0,0,1-.555.853,3.051,3.051,0,0,1-1.488.312,2.714,2.714,0,0,1-1.561-.371,2.014,2.014,0,0,1-.693-1.394Zm-2.605-5.734h0v8.569h1.4v-8.569Zm-8.689,0,3.049,8.569h1.693l3.049-8.569h-1.527l-2.35,6.983h-.037l-2.35-6.983Z" transform="translate(-16823.307 -12991.408)"/><path class="d" d="M640,0l12.2,12.2H643.39a3.821,3.821,0,0,1-2.038-.354,2.4,2.4,0,0,1-1-1l-.035-.065A3.966,3.966,0,0,1,640,8.813V0Z" transform="translate(-487.592)"/></g></g></svg>