<svg xmlns="http://www.w3.org/2000/svg" xmlns:xlink="http://www.w3.org/1999/xlink" width="52" height="52" viewBox="0 0 52 52"><defs><style>.a,.e{fill:#fff;}.a{stroke:#707070;}.b{clip-path:url(#a);}.c{fill:#0f4faf;}.d{fill:#023889;}</style><clipPath id="a"><rect class="a" width="52" height="52" transform="translate(7097 1229)"/></clipPath></defs><g class="b" transform="translate(-7097 -1229)"><g transform="translate(6976.82 1230.88)"><path class="c" d="M164.18,12.06V43.282a5.573,5.573,0,0,1-.537,2.9,3.644,3.644,0,0,1-1.52,1.52l-.072.038a5.832,5.832,0,0,1-2.927.5H133.154a5.822,5.822,0,0,1-3.1-.537,3.652,3.652,0,0,1-1.522-1.52l-.04-.074a5.893,5.893,0,0,1-.5-2.925V5.154a5.822,5.822,0,0,1,.537-3.1,3.637,3.637,0,0,1,1.52-1.522l.074-.04a5.893,5.893,0,0,1,2.925-.5H152.12Z"/><path class="d" d="M640,0l12.06,12.06H643.35a3.776,3.776,0,0,1-2.014-.35,2.374,2.374,0,0,1-.987-.987l-.034-.064A3.919,3.919,0,0,1,640,8.709Z" transform="translate(-487.88)"/><path class="e" d="M81.274,148.925A6.3,6.3,0,0,0,69.33,151.25a5.666,5.666,0,0,0-4.23,5.368,5.777,5.777,0,0,0,5.609,5.609H81.226a6.494,6.494,0,0,0,6.309-6.661A6.655,6.655,0,0,0,81.274,148.925Z" transform="translate(69.773 -128.28)"/></g></g></svg>