<svg xmlns="http://www.w3.org/2000/svg" xmlns:xlink="http://www.w3.org/1999/xlink" width="52" height="52" viewBox="0 0 52 52"><defs><style>.a,.e{fill:#fff;}.a{stroke:#707070;}.b{clip-path:url(#a);}.c{fill:#007538;}.d{fill:#005b2c;}</style><clipPath id="a"><rect class="a" width="52" height="52" transform="translate(2288.674 1470)"/></clipPath></defs><g class="b" transform="translate(-2288.674 -1470)"><g transform="translate(2297.389 1472.378)"><path class="c" d="M163.68,11.893V42.683a5.5,5.5,0,0,1-.529,2.862,3.593,3.593,0,0,1-1.5,1.5l-.071.038a5.752,5.752,0,0,1-2.886.492H133.082a5.742,5.742,0,0,1-3.053-.529,3.6,3.6,0,0,1-1.5-1.5l-.04-.073a5.812,5.812,0,0,1-.49-2.884V5.082a5.742,5.742,0,0,1,.529-3.053,3.587,3.587,0,0,1,1.5-1.5L130.1.49A5.812,5.812,0,0,1,132.985,0h18.8Z" transform="translate(-128)"/><path class="d" d="M640,0l11.893,11.893H643.3a3.723,3.723,0,0,1-1.986-.345,2.342,2.342,0,0,1-.973-.973l-.034-.063A3.864,3.864,0,0,1,640,8.589Z" transform="translate(-616.213)"/><path class="e" d="M388.672,434.308l3.037-5.086h.111l2.87,5.086h2.888l-4.044-6.69,3.913-6.242h-2.775l-2.837,4.864h-.111l-2.7-4.864h-2.85l3.82,6.355-4.117,6.577Z" transform="translate(-373.897 -401.8)"/></g></g></svg>