<svg xmlns="http://www.w3.org/2000/svg" xmlns:xlink="http://www.w3.org/1999/xlink" width="52" height="52" viewBox="0 0 52 52"><defs><style>.a,.d{fill:#fff;}.a{stroke:#707070;}.b{clip-path:url(#a);}.c{fill:#926000;}.e{fill:rgba(0,0,0,0.26);}</style><clipPath id="a"><rect class="a" width="52" height="52" transform="translate(598 55)"/></clipPath></defs><g class="b" transform="translate(-598 -55)"><g transform="translate(478.127 57.169)"><path class="c" d="M163.746,11.915V42.762a5.506,5.506,0,0,1-.53,2.868,3.6,3.6,0,0,1-1.5,1.5l-.072.038a5.762,5.762,0,0,1-2.891.493h-25.66a5.752,5.752,0,0,1-3.058-.53,3.609,3.609,0,0,1-1.5-1.5l-.04-.073A5.822,5.822,0,0,1,128,42.667V5.092a5.752,5.752,0,0,1,.53-3.058,3.593,3.593,0,0,1,1.5-1.5l.073-.04A5.822,5.822,0,0,1,132.995,0h18.836Z"/><path class="d" d="M448.993,4.965h1.986V9.929h-1.986A.993.993,0,0,1,448,8.937V5.958a.993.993,0,0,1,.993-.993ZM450.979,0h1.986a.993.993,0,0,1,.993.993V3.972a.993.993,0,0,1-.993.993h-1.986Zm-1.986,14.894h1.986v4.965h-1.986a.993.993,0,0,1-.993-.993V15.887A.993.993,0,0,1,448.993,14.894Zm1.986-4.965h1.986a.993.993,0,0,1,.993.993V13.9a.993.993,0,0,1-.993.993h-1.986Zm0,9.929h1.986a.993.993,0,0,1,.993.993v2.979a.993.993,0,0,1-.993.993h-1.986Zm1.986,6.951a.993.993,0,0,1,.993.993v8.937a.993.993,0,0,1-.993.993h-3.972a.993.993,0,0,1-.993-.993V27.8a.993.993,0,0,1,.993-.993Zm0,3.972h-3.972v5.958h3.972Z" transform="translate(-305.106)"/><path class="e" d="M640,0l11.915,11.915h-8.6a3.73,3.73,0,0,1-1.99-.346,2.345,2.345,0,0,1-.975-.975l-.034-.064A3.872,3.872,0,0,1,640,8.6Z" transform="translate(-488.169)"/></g></g></svg>